# xmcd
#
# Track frame offsets:
#	150
#	17262
#	41187
#	69650
#	79675
#	95900
#	119362
#	148350
#	163975
#	195600
#	237600
#	267975
#	293487
#
# Disc length: 4068
#
# Revision: 2
# Processed by: cddbd v1.5.1PL0 Copyright (c) Steve Scherf et al.
# Submitted via: CDex 1.51
# Normalized: r0:TDELIM( - ),TSWAP
#
DISCID=c50fe20d
DTITLE=Nina Simone, Stan Getz, Gato Barbieri - Imaginative Ballads
DYEAR=1991
DGENRE=Jazz
TTITLE0=Nina Simone - In My Solitude
TTITLE1=Gato Barbierie - Samba Pa Ti
TTITLE2=The Fania All Stars - Salsalito
TTITLE3=Nina Simone - I Loves You Porgy
TTITLE4=Art Pepper - The Breeze And I
TTITLE5=Dexter Grodon - I Should Care
TTITLE6=Winston Mankunku - Ntyilo Ntyilo
TTITLE7=Winston Mankunku - I Wish I Knew
TTITLE8=Chet Baker - Oh You Crazy Moon
TTITLE9=Stan Getz feat. Andy LaVerne - Chappaqua
TTITLE10=Stan Getz and Bill Evans - The Peacocks
TTITLE11=Gigi Gryce and Hank Jones - Imagination
TTITLE12=Claude Williamson Trio - Young At Heart
EXTD=YEAR: 1991
EXTT0=
EXTT1=
EXTT2=
EXTT3=
EXTT4=
EXTT5=
EXTT6=
EXTT7=
EXTT8=
EXTT9=
EXTT10=
EXTT11=
EXTT12=
PLAYORDER=
